<svg xmlns="http://www.w3.org/2000/svg" viewBox="0 0 441.6 441.6"><title>proton-icon</title><g id="Layer_2" data-name="Layer 2"><g id="Layer_1-2" data-name="Layer 1"><path d="M220.8,0C99.05,0,0,99.05,0,220.8S99.05,441.6,220.8,441.6s220.8-99.05,220.8-220.8S342.55,0,220.8,0ZM39,183l105.41,2.13s-21,32-14.62,82.26l14.62-12.19s-3.65,49.66,42.35,71.29c0,0-41.43,0-57.88-40.82,0,0-6.7,6.09-10.06,11.58,0,0-9.75-7.21-5.94-64.38,0,0-9.29,5.58-10.51,10.45,0,0-.3-14,13.41-42.34l-78.6,2.13a60.93,60.93,0,0,1-.46-7.64q.81-6,2-11.83C38.77,183.45,38.86,183.22,39,183ZM148.64,94.67c32.9,5.18,51.49,15.84,51.49,15.84-52.91,12.52-103,38.39-103,38.39,37.48-33.21,71.9-38.39,71.9-38.39C166.31,105,148.64,94.67,148.64,94.67Zm176.09,68.24c-55.54-12.08-127.65-21-127.65-21,32.29-18.89,66.11-9.44,66.11-9.44-6.09.3-17.67,4.87-17.67,4.87C273.85,143.42,324.73,162.91,324.73,162.91ZM345.14,204s-58.49-1.52-66.11-1.52-33.2,5.48-78.9,38.39c0,0,27.42-45.7,72.2-45.7S345.14,204,345.14,204ZM220.8,406.64a185.05,185.05,0,0,1-114.91-39.78c18.75-22.65,53.57-22.07,53.57-22.07,56.66,0,86.21,44.9,88.65,44.9s26.2-6.21,45.09-29.66,25.89-58.5,20.72-58.5-7.62,9.14-19.2,9.14-52.09-35.95-52.09-44.17,52.7-34.43,63.67-41.13S345,219.58,345,219.58c0,2.49.73,12.68,1.33,20.72a4.26,4.26,0,0,0,7.42,2.54c8.49-9.47,23.32-25.43,33.9-37.27,15.23-17.06-3.35-22.85-7.92-25.9-2.15-1.43-1.13-3.2.55-4.67a4.36,4.36,0,0,0-.29-6.81c-26.31-19.18-76.12-36.05-76.12-36.05a4.39,4.39,0,0,1,2-3.15,3.19,3.19,0,0,0-.2-5.31C256.46,93.42,190.36,76.09,159.91,76.09c-21.53,0-35.6,1.7-42.36,2.78a2,2,0,0,0-1,3.38c5,4.61,10.43,13.49,10.43,13.49H83.34A185.84,185.84,0,0,1,406.64,220.8C406.64,323.43,323.44,406.64,220.8,406.64Z"/></g></g></svg>